# Blender 5.0.1
# www.blender.org
o end_glow
v -1.700000 0.400000 -68.949997
v 1.700000 0.400000 -68.949997
v 1.700000 0.400000 -69.050003
v -1.700000 0.400000 -69.050003
v -1.700000 3.600000 -68.949997
v 1.700000 3.600000 -68.949997
v 1.700000 3.600000 -69.050003
v -1.700000 3.600000 -69.050003
vn -0.0000 -1.0000 -0.0000
vn -0.0000 1.0000 -0.0000
vn -0.0000 -0.0000 1.0000
vn 1.0000 -0.0000 -0.0000
vn -0.0000 -0.0000 -1.0000
vn -1.0000 -0.0000 -0.0000
s 0
f 4//1 2//1 1//1
f 6//2 8//2 5//2
f 2//3 5//3 1//3
f 3//4 6//4 2//4
f 4//5 7//5 3//5
f 1//6 8//6 4//6
f 4//1 3//1 2//1
f 6//2 7//2 8//2
f 2//3 6//3 5//3
f 3//4 7//4 6//4
f 4//5 8//5 7//5
f 1//6 5//6 8//6
