# Blender 5.0.1
# www.blender.org
o light_blue
v -1.500000 0.000000 0.050000
v 1.500000 0.000000 0.050000
v 2.640000 1.140000 0.050000
v 2.640000 2.640000 0.050000
v 1.500000 3.780000 0.050000
v -1.500000 3.780000 0.050000
v -2.640000 2.640000 0.050000
v -2.640000 1.140000 0.050000
v -1.500000 0.000000 -0.050000
v 1.500000 0.000000 -0.050000
v 2.640000 1.140000 -0.050000
v 2.640000 2.640000 -0.050000
v 1.500000 3.780000 -0.050000
v -1.500000 3.780000 -0.050000
v -2.640000 2.640000 -0.050000
v -2.640000 1.140000 -0.050000
v -1.490000 0.000000 0.050000
v 1.490000 0.000000 0.050000
v 2.590000 1.100000 0.050000
v 2.590000 2.580000 0.050000
v 1.490000 3.680000 0.050000
v -1.490000 3.680000 0.050000
v -2.590000 2.580000 0.050000
v -2.590000 1.100000 0.050000
v -1.490000 0.000000 -0.050000
v 1.490000 0.000000 -0.050000
v 2.590000 1.100000 -0.050000
v 2.590000 2.580000 -0.050000
v 1.490000 3.680000 -0.050000
v -1.490000 3.680000 -0.050000
v -2.590000 2.580000 -0.050000
v -2.590000 1.100000 -0.050000
v -1.500000 0.000000 -4.950000
v 1.500000 0.000000 -4.950000
v 2.640000 1.140000 -4.950000
v 2.640000 2.640000 -4.950000
v 1.500000 3.780000 -4.950000
v -1.500000 3.780000 -4.950000
v -2.640000 2.640000 -4.950000
v -2.640000 1.140000 -4.950000
v -1.500000 0.000000 -5.050000
v 1.500000 0.000000 -5.050000
v 2.640000 1.140000 -5.050000
v 2.640000 2.640000 -5.050000
v 1.500000 3.780000 -5.050000
v -1.500000 3.780000 -5.050000
v -2.640000 2.640000 -5.050000
v -2.640000 1.140000 -5.050000
v -1.490000 0.000000 -4.950000
v 1.490000 0.000000 -4.950000
v 2.590000 1.100000 -4.950000
v 2.590000 2.580000 -4.950000
v 1.490000 3.680000 -4.950000
v -1.490000 3.680000 -4.950000
v -2.590000 2.580000 -4.950000
v -2.590000 1.100000 -4.950000
v -1.490000 0.000000 -5.050000
v 1.490000 0.000000 -5.050000
v 2.590000 1.100000 -5.050000
v 2.590000 2.580000 -5.050000
v 1.490000 3.680000 -5.050000
v -1.490000 3.680000 -5.050000
v -2.590000 2.580000 -5.050000
v -2.590000 1.100000 -5.050000
v -1.500000 0.000000 -9.950000
v 1.500000 0.000000 -9.950000
v 2.640000 1.140000 -9.950000
v 2.640000 2.640000 -9.950000
v 1.500000 3.780000 -9.950000
v -1.500000 3.780000 -9.950000
v -2.640000 2.640000 -9.950000
v -2.640000 1.140000 -9.950000
v -1.500000 0.000000 -10.050000
v 1.500000 0.000000 -10.050000
v 2.640000 1.140000 -10.050000
v 2.640000 2.640000 -10.050000
v 1.500000 3.780000 -10.050000
v -1.500000 3.780000 -10.050000
v -2.640000 2.640000 -10.050000
v -2.640000 1.140000 -10.050000
v -1.490000 0.000000 -9.950000
v 1.490000 0.000000 -9.950000
v 2.590000 1.100000 -9.950000
v 2.590000 2.580000 -9.950000
v 1.490000 3.680000 -9.950000
v -1.490000 3.680000 -9.950000
v -2.590000 2.580000 -9.950000
v -2.590000 1.100000 -9.950000
v -1.490000 0.000000 -10.050000
v 1.490000 0.000000 -10.050000
v 2.590000 1.100000 -10.050000
v 2.590000 2.580000 -10.050000
v 1.490000 3.680000 -10.050000
v -1.490000 3.680000 -10.050000
v -2.590000 2.580000 -10.050000
v -2.590000 1.100000 -10.050000
v -1.500000 0.000000 -14.950000
v 1.500000 0.000000 -14.950000
v 2.640000 1.140000 -14.950000
v 2.640000 2.640000 -14.950000
v 1.500000 3.780000 -14.950000
v -1.500000 3.780000 -14.950000
v -2.640000 2.640000 -14.950000
v -2.640000 1.140000 -14.950000
v -1.500000 0.000000 -15.050000
v 1.500000 0.000000 -15.050000
v 2.640000 1.140000 -15.050000
v 2.640000 2.640000 -15.050000
v 1.500000 3.780000 -15.050000
v -1.500000 3.780000 -15.050000
v -2.640000 2.640000 -15.050000
v -2.640000 1.140000 -15.050000
v -1.490000 0.000000 -14.950000
v 1.490000 0.000000 -14.950000
v 2.590000 1.100000 -14.950000
v 2.590000 2.580000 -14.950000
v 1.490000 3.680000 -14.950000
v -1.490000 3.680000 -14.950000
v -2.590000 2.580000 -14.950000
v -2.590000 1.100000 -14.950000
v -1.490000 0.000000 -15.050000
v 1.490000 0.000000 -15.050000
v 2.590000 1.100000 -15.050000
v 2.590000 2.580000 -15.050000
v 1.490000 3.680000 -15.050000
v -1.490000 3.680000 -15.050000
v -2.590000 2.580000 -15.050000
v -2.590000 1.100000 -15.050000
v -1.500000 0.000000 -19.950001
v 1.500000 0.000000 -19.950001
v 2.640000 1.140000 -19.950001
v 2.640000 2.640000 -19.950001
v 1.500000 3.780000 -19.950001
v -1.500000 3.780000 -19.950001
v -2.640000 2.640000 -19.950001
v -2.640000 1.140000 -19.950001
v -1.500000 0.000000 -20.049999
v 1.500000 0.000000 -20.049999
v 2.640000 1.140000 -20.049999
v 2.640000 2.640000 -20.049999
v 1.500000 3.780000 -20.049999
v -1.500000 3.780000 -20.049999
v -2.640000 2.640000 -20.049999
v -2.640000 1.140000 -20.049999
v -1.490000 0.000000 -19.950001
v 1.490000 0.000000 -19.950001
v 2.590000 1.100000 -19.950001
v 2.590000 2.580000 -19.950001
v 1.490000 3.680000 -19.950001
v -1.490000 3.680000 -19.950001
v -2.590000 2.580000 -19.950001
v -2.590000 1.100000 -19.950001
v -1.490000 0.000000 -20.049999
v 1.490000 0.000000 -20.049999
v 2.590000 1.100000 -20.049999
v 2.590000 2.580000 -20.049999
v 1.490000 3.680000 -20.049999
v -1.490000 3.680000 -20.049999
v -2.590000 2.580000 -20.049999
v -2.590000 1.100000 -20.049999
v -1.500000 0.000000 -24.950001
v 1.500000 0.000000 -24.950001
v 2.640000 1.140000 -24.950001
v 2.640000 2.640000 -24.950001
v 1.500000 3.780000 -24.950001
v -1.500000 3.780000 -24.950001
v -2.640000 2.640000 -24.950001
v -2.640000 1.140000 -24.950001
v -1.500000 0.000000 -25.049999
v 1.500000 0.000000 -25.049999
v 2.640000 1.140000 -25.049999
v 2.640000 2.640000 -25.049999
v 1.500000 3.780000 -25.049999
v -1.500000 3.780000 -25.049999
v -2.640000 2.640000 -25.049999
v -2.640000 1.140000 -25.049999
v -1.490000 0.000000 -24.950001
v 1.490000 0.000000 -24.950001
v 2.590000 1.100000 -24.950001
v 2.590000 2.580000 -24.950001
v 1.490000 3.680000 -24.950001
v -1.490000 3.680000 -24.950001
v -2.590000 2.580000 -24.950001
v -2.590000 1.100000 -24.950001
v -1.490000 0.000000 -25.049999
v 1.490000 0.000000 -25.049999
v 2.590000 1.100000 -25.049999
v 2.590000 2.580000 -25.049999
v 1.490000 3.680000 -25.049999
v -1.490000 3.680000 -25.049999
v -2.590000 2.580000 -25.049999
v -2.590000 1.100000 -25.049999
v -1.500000 0.000000 -29.950001
v 1.500000 0.000000 -29.950001
v 2.640000 1.140000 -29.950001
v 2.640000 2.640000 -29.950001
v 1.500000 3.780000 -29.950001
v -1.500000 3.780000 -29.950001
v -2.640000 2.640000 -29.950001
v -2.640000 1.140000 -29.950001
v -1.500000 0.000000 -30.049999
v 1.500000 0.000000 -30.049999
v 2.640000 1.140000 -30.049999
v 2.640000 2.640000 -30.049999
v 1.500000 3.780000 -30.049999
v -1.500000 3.780000 -30.049999
v -2.640000 2.640000 -30.049999
v -2.640000 1.140000 -30.049999
v -1.490000 0.000000 -29.950001
v 1.490000 0.000000 -29.950001
v 2.590000 1.100000 -29.950001
v 2.590000 2.580000 -29.950001
v 1.490000 3.680000 -29.950001
v -1.490000 3.680000 -29.950001
v -2.590000 2.580000 -29.950001
v -2.590000 1.100000 -29.950001
v -1.490000 0.000000 -30.049999
v 1.490000 0.000000 -30.049999
v 2.590000 1.100000 -30.049999
v 2.590000 2.580000 -30.049999
v 1.490000 3.680000 -30.049999
v -1.490000 3.680000 -30.049999
v -2.590000 2.580000 -30.049999
v -2.590000 1.100000 -30.049999
v -1.500000 0.000000 -34.950001
v 1.500000 0.000000 -34.950001
v 2.640000 1.140000 -34.950001
v 2.640000 2.640000 -34.950001
v 1.500000 3.780000 -34.950001
v -1.500000 3.780000 -34.950001
v -2.640000 2.640000 -34.950001
v -2.640000 1.140000 -34.950001
v -1.500000 0.000000 -35.049999
v 1.500000 0.000000 -35.049999
v 2.640000 1.140000 -35.049999
v 2.640000 2.640000 -35.049999
v 1.500000 3.780000 -35.049999
v -1.500000 3.780000 -35.049999
v -2.640000 2.640000 -35.049999
v -2.640000 1.140000 -35.049999
v -1.490000 0.000000 -34.950001
v 1.490000 0.000000 -34.950001
v 2.590000 1.100000 -34.950001
v 2.590000 2.580000 -34.950001
v 1.490000 3.680000 -34.950001
v -1.490000 3.680000 -34.950001
v -2.590000 2.580000 -34.950001
v -2.590000 1.100000 -34.950001
v -1.490000 0.000000 -35.049999
v 1.490000 0.000000 -35.049999
v 2.590000 1.100000 -35.049999
v 2.590000 2.580000 -35.049999
v 1.490000 3.680000 -35.049999
v -1.490000 3.680000 -35.049999
v -2.590000 2.580000 -35.049999
v -2.590000 1.100000 -35.049999
v -1.500000 0.000000 -39.950001
v 1.500000 0.000000 -39.950001
v 2.640000 1.140000 -39.950001
v 2.640000 2.640000 -39.950001
v 1.500000 3.780000 -39.950001
v -1.500000 3.780000 -39.950001
v -2.640000 2.640000 -39.950001
v -2.640000 1.140000 -39.950001
v -1.500000 0.000000 -40.049999
v 1.500000 0.000000 -40.049999
v 2.640000 1.140000 -40.049999
v 2.640000 2.640000 -40.049999
v 1.500000 3.780000 -40.049999
v -1.500000 3.780000 -40.049999
v -2.640000 2.640000 -40.049999
v -2.640000 1.140000 -40.049999
v -1.490000 0.000000 -39.950001
v 1.490000 0.000000 -39.950001
v 2.590000 1.100000 -39.950001
v 2.590000 2.580000 -39.950001
v 1.490000 3.680000 -39.950001
v -1.490000 3.680000 -39.950001
v -2.590000 2.580000 -39.950001
v -2.590000 1.100000 -39.950001
v -1.490000 0.000000 -40.049999
v 1.490000 0.000000 -40.049999
v 2.590000 1.100000 -40.049999
v 2.590000 2.580000 -40.049999
v 1.490000 3.680000 -40.049999
v -1.490000 3.680000 -40.049999
v -2.590000 2.580000 -40.049999
v -2.590000 1.100000 -40.049999
v -1.500000 0.000000 -44.950001
v 1.500000 0.000000 -44.950001
v 2.640000 1.140000 -44.950001
v 2.640000 2.640000 -44.950001
v 1.500000 3.780000 -44.950001
v -1.500000 3.780000 -44.950001
v -2.640000 2.640000 -44.950001
v -2.640000 1.140000 -44.950001
v -1.500000 0.000000 -45.049999
v 1.500000 0.000000 -45.049999
v 2.640000 1.140000 -45.049999
v 2.640000 2.640000 -45.049999
v 1.500000 3.780000 -45.049999
v -1.500000 3.780000 -45.049999
v -2.640000 2.640000 -45.049999
v -2.640000 1.140000 -45.049999
v -1.490000 0.000000 -44.950001
v 1.490000 0.000000 -44.950001
v 2.590000 1.100000 -44.950001
v 2.590000 2.580000 -44.950001
v 1.490000 3.680000 -44.950001
v -1.490000 3.680000 -44.950001
v -2.590000 2.580000 -44.950001
v -2.590000 1.100000 -44.950001
v -1.490000 0.000000 -45.049999
v 1.490000 0.000000 -45.049999
v 2.590000 1.100000 -45.049999
v 2.590000 2.580000 -45.049999
v 1.490000 3.680000 -45.049999
v -1.490000 3.680000 -45.049999
v -2.590000 2.580000 -45.049999
v -2.590000 1.100000 -45.049999
v -1.500000 0.000000 -49.950001
v 1.500000 0.000000 -49.950001
v 2.640000 1.140000 -49.950001
v 2.640000 2.640000 -49.950001
v 1.500000 3.780000 -49.950001
v -1.500000 3.780000 -49.950001
v -2.640000 2.640000 -49.950001
v -2.640000 1.140000 -49.950001
v -1.500000 0.000000 -50.049999
v 1.500000 0.000000 -50.049999
v 2.640000 1.140000 -50.049999
v 2.640000 2.640000 -50.049999
v 1.500000 3.780000 -50.049999
v -1.500000 3.780000 -50.049999
v -2.640000 2.640000 -50.049999
v -2.640000 1.140000 -50.049999
v -1.490000 0.000000 -49.950001
v 1.490000 0.000000 -49.950001
v 2.590000 1.100000 -49.950001
v 2.590000 2.580000 -49.950001
v 1.490000 3.680000 -49.950001
v -1.490000 3.680000 -49.950001
v -2.590000 2.580000 -49.950001
v -2.590000 1.100000 -49.950001
v -1.490000 0.000000 -50.049999
v 1.490000 0.000000 -50.049999
v 2.590000 1.100000 -50.049999
v 2.590000 2.580000 -50.049999
v 1.490000 3.680000 -50.049999
v -1.490000 3.680000 -50.049999
v -2.590000 2.580000 -50.049999
v -2.590000 1.100000 -50.049999
v -1.500000 0.000000 -54.950001
v 1.500000 0.000000 -54.950001
v 2.640000 1.140000 -54.950001
v 2.640000 2.640000 -54.950001
v 1.500000 3.780000 -54.950001
v -1.500000 3.780000 -54.950001
v -2.640000 2.640000 -54.950001
v -2.640000 1.140000 -54.950001
v -1.500000 0.000000 -55.049999
v 1.500000 0.000000 -55.049999
v 2.640000 1.140000 -55.049999
v 2.640000 2.640000 -55.049999
v 1.500000 3.780000 -55.049999
v -1.500000 3.780000 -55.049999
v -2.640000 2.640000 -55.049999
v -2.640000 1.140000 -55.049999
v -1.490000 0.000000 -54.950001
v 1.490000 0.000000 -54.950001
v 2.590000 1.100000 -54.950001
v 2.590000 2.580000 -54.950001
v 1.490000 3.680000 -54.950001
v -1.490000 3.680000 -54.950001
v -2.590000 2.580000 -54.950001
v -2.590000 1.100000 -54.950001
v -1.490000 0.000000 -55.049999
v 1.490000 0.000000 -55.049999
v 2.590000 1.100000 -55.049999
v 2.590000 2.580000 -55.049999
v 1.490000 3.680000 -55.049999
v -1.490000 3.680000 -55.049999
v -2.590000 2.580000 -55.049999
v -2.590000 1.100000 -55.049999
v -1.500000 0.000000 -59.950001
v 1.500000 0.000000 -59.950001
v 2.640000 1.140000 -59.950001
v 2.640000 2.640000 -59.950001
v 1.500000 3.780000 -59.950001
v -1.500000 3.780000 -59.950001
v -2.640000 2.640000 -59.950001
v -2.640000 1.140000 -59.950001
v -1.500000 0.000000 -60.049999
v 1.500000 0.000000 -60.049999
v 2.640000 1.140000 -60.049999
v 2.640000 2.640000 -60.049999
v 1.500000 3.780000 -60.049999
v -1.500000 3.780000 -60.049999
v -2.640000 2.640000 -60.049999
v -2.640000 1.140000 -60.049999
v -1.490000 0.000000 -59.950001
v 1.490000 0.000000 -59.950001
v 2.590000 1.100000 -59.950001
v 2.590000 2.580000 -59.950001
v 1.490000 3.680000 -59.950001
v -1.490000 3.680000 -59.950001
v -2.590000 2.580000 -59.950001
v -2.590000 1.100000 -59.950001
v -1.490000 0.000000 -60.049999
v 1.490000 0.000000 -60.049999
v 2.590000 1.100000 -60.049999
v 2.590000 2.580000 -60.049999
v 1.490000 3.680000 -60.049999
v -1.490000 3.680000 -60.049999
v -2.590000 2.580000 -60.049999
v -2.590000 1.100000 -60.049999
v -1.500000 0.000000 -64.949997
v 1.500000 0.000000 -64.949997
v 2.640000 1.140000 -64.949997
v 2.640000 2.640000 -64.949997
v 1.500000 3.780000 -64.949997
v -1.500000 3.780000 -64.949997
v -2.640000 2.640000 -64.949997
v -2.640000 1.140000 -64.949997
v -1.500000 0.000000 -65.050003
v 1.500000 0.000000 -65.050003
v 2.640000 1.140000 -65.050003
v 2.640000 2.640000 -65.050003
v 1.500000 3.780000 -65.050003
v -1.500000 3.780000 -65.050003
v -2.640000 2.640000 -65.050003
v -2.640000 1.140000 -65.050003
v -1.490000 0.000000 -64.949997
v 1.490000 0.000000 -64.949997
v 2.590000 1.100000 -64.949997
v 2.590000 2.580000 -64.949997
v 1.490000 3.680000 -64.949997
v -1.490000 3.680000 -64.949997
v -2.590000 2.580000 -64.949997
v -2.590000 1.100000 -64.949997
v -1.490000 0.000000 -65.050003
v 1.490000 0.000000 -65.050003
v 2.590000 1.100000 -65.050003
v 2.590000 2.580000 -65.050003
v 1.490000 3.680000 -65.050003
v -1.490000 3.680000 -65.050003
v -2.590000 2.580000 -65.050003
v -2.590000 1.100000 -65.050003
v -1.500000 0.000000 -69.949997
v 1.500000 0.000000 -69.949997
v 2.640000 1.140000 -69.949997
v 2.640000 2.640000 -69.949997
v 1.500000 3.780000 -69.949997
v -1.500000 3.780000 -69.949997
v -2.640000 2.640000 -69.949997
v -2.640000 1.140000 -69.949997
v -1.500000 0.000000 -70.050003
v 1.500000 0.000000 -70.050003
v 2.640000 1.140000 -70.050003
v 2.640000 2.640000 -70.050003
v 1.500000 3.780000 -70.050003
v -1.500000 3.780000 -70.050003
v -2.640000 2.640000 -70.050003
v -2.640000 1.140000 -70.050003
v -1.490000 0.000000 -69.949997
v 1.490000 0.000000 -69.949997
v 2.590000 1.100000 -69.949997
v 2.590000 2.580000 -69.949997
v 1.490000 3.680000 -69.949997
v -1.490000 3.680000 -69.949997
v -2.590000 2.580000 -69.949997
v -2.590000 1.100000 -69.949997
v -1.490000 0.000000 -70.050003
v 1.490000 0.000000 -70.050003
v 2.590000 1.100000 -70.050003
v 2.590000 2.580000 -70.050003
v 1.490000 3.680000 -70.050003
v -1.490000 3.680000 -70.050003
v -2.590000 2.580000 -70.050003
v -2.590000 1.100000 -70.050003
vn -0.0000 -1.0000 -0.0000
vn -0.0000 1.0000 -0.0000
vn 0.7071 -0.7071 -0.0000
vn -0.7071 0.7071 -0.0000
vn -0.0000 -0.0000 1.0000
vn -0.0000 -0.0000 -1.0000
vn 1.0000 -0.0000 -0.0000
vn -1.0000 -0.0000 -0.0000
vn 0.7071 0.7071 -0.0000
vn -0.7071 -0.7071 -0.0000
vn -0.0000 0.0001 -1.0000
vn -0.0000 0.0001 1.0000
vn -0.0000 -0.0001 -1.0000
vn -0.0000 -0.0001 1.0000
vn -0.0000 0.0003 1.0000
vn -0.0000 -0.0002 -1.0000
vn -0.0000 -0.0002 1.0000
vn -0.0000 0.0003 -1.0000
vn -0.0000 -0.0003 1.0000
vn -0.0000 0.0007 1.0000
vn -0.0000 -0.0006 1.0000
vn -0.0000 0.0006 -1.0000
vn -0.0000 -0.0004 1.0000
vn -0.0000 -0.0007 -1.0000
vn -0.0000 -0.0003 -1.0000
vn -0.0000 -0.0007 1.0000
vn -0.0000 -0.0004 -1.0000
vn -0.0000 0.0006 1.0000
vn -0.0000 -0.0006 -1.0000
vn -0.0000 0.0007 -1.0000
vn -0.0000 -0.0014 1.0000
vn -0.0000 0.0011 -1.0000
vn -0.0000 0.0009 -1.0000
vn -0.0000 -0.0014 -1.0000
s 0
f 9//1 2//1 1//1
f 26//2 17//2 18//2
f 1//2 18//2 17//2
f 10//2 25//2 26//2
f 10//3 3//3 2//3
f 27//4 18//4 19//4
f 2//5 19//5 18//5
f 10//6 27//6 11//6
f 11//7 4//7 3//7
f 28//8 19//8 20//8
f 3//5 20//5 19//5
f 11//6 28//6 12//6
f 12//9 5//9 4//9
f 29//10 20//10 21//10
f 4//5 21//5 20//5
f 12//6 29//6 13//6
f 13//2 6//2 5//2
f 30//1 21//1 22//1
f 6//5 21//5 5//5
f 13//6 30//6 14//6
f 14//4 7//4 6//4
f 31//3 22//3 23//3
f 7//5 22//5 6//5
f 15//6 30//6 31//6
f 15//8 8//8 7//8
f 32//7 23//7 24//7
f 8//5 23//5 7//5
f 16//6 31//6 32//6
f 16//10 1//10 8//10
f 25//9 24//9 17//9
f 1//5 24//5 8//5
f 9//6 32//6 25//6
f 41//1 34//1 33//1
f 58//2 49//2 50//2
f 33//1 50//1 49//1
f 42//2 57//2 58//2
f 42//3 35//3 34//3
f 59//4 50//4 51//4
f 34//5 51//5 50//5
f 42//6 59//6 43//6
f 43//7 36//7 35//7
f 60//8 51//8 52//8
f 35//5 52//5 51//5
f 43//6 60//6 44//6
f 44//9 37//9 36//9
f 61//10 52//10 53//10
f 36//5 53//5 52//5
f 44//6 61//6 45//6
f 45//2 38//2 37//2
f 62//1 53//1 54//1
f 38//5 53//5 37//5
f 45//6 62//6 46//6
f 46//4 39//4 38//4
f 63//3 54//3 55//3
f 39//5 54//5 38//5
f 47//6 62//6 63//6
f 47//8 40//8 39//8
f 64//7 55//7 56//7
f 40//5 55//5 39//5
f 48//6 63//6 64//6
f 48//10 33//10 40//10
f 57//9 56//9 49//9
f 33//5 56//5 40//5
f 41//6 64//6 57//6
f 73//1 66//1 65//1
f 90//2 81//2 82//2
f 65//2 82//2 81//2
f 74//2 89//2 90//2
f 74//3 67//3 66//3
f 91//4 82//4 83//4
f 66//5 83//5 82//5
f 74//11 91//11 75//11
f 75//7 68//7 67//7
f 92//8 83//8 84//8
f 67//5 84//5 83//5
f 75//6 92//6 76//6
f 76//9 69//9 68//9
f 93//10 84//10 85//10
f 68//5 85//5 84//5
f 76//6 93//6 77//6
f 77//2 70//2 69//2
f 94//1 85//1 86//1
f 70//5 85//5 69//5
f 77//6 94//6 78//6
f 78//4 71//4 70//4
f 95//3 86//3 87//3
f 71//5 86//5 70//5
f 79//6 94//6 95//6
f 79//8 72//8 71//8
f 96//7 87//7 88//7
f 72//5 87//5 71//5
f 80//6 95//6 96//6
f 80//10 65//10 72//10
f 89//9 88//9 81//9
f 65//12 88//12 72//12
f 73//6 96//6 89//6
f 105//1 98//1 97//1
f 122//2 113//2 114//2
f 97//1 114//1 113//1
f 106//2 121//2 122//2
f 106//3 99//3 98//3
f 123//4 114//4 115//4
f 98//5 115//5 114//5
f 106//13 123//13 107//13
f 107//7 100//7 99//7
f 124//8 115//8 116//8
f 99//5 116//5 115//5
f 107//6 124//6 108//6
f 108//9 101//9 100//9
f 125//10 116//10 117//10
f 100//5 117//5 116//5
f 108//6 125//6 109//6
f 109//2 102//2 101//2
f 126//1 117//1 118//1
f 102//5 117//5 101//5
f 109//6 126//6 110//6
f 110//4 103//4 102//4
f 127//3 118//3 119//3
f 103//5 118//5 102//5
f 111//6 126//6 127//6
f 111//8 104//8 103//8
f 128//7 119//7 120//7
f 104//5 119//5 103//5
f 112//6 127//6 128//6
f 112//10 97//10 104//10
f 121//9 120//9 113//9
f 97//14 120//14 104//14
f 105//6 128//6 121//6
f 137//1 130//1 129//1
f 154//2 145//2 146//2
f 129//2 146//2 145//2
f 138//2 153//2 154//2
f 138//3 131//3 130//3
f 155//4 146//4 147//4
f 130//15 147//15 146//15
f 138//16 155//16 139//16
f 139//7 132//7 131//7
f 156//8 147//8 148//8
f 131//5 148//5 147//5
f 139//6 156//6 140//6
f 140//9 133//9 132//9
f 157//10 148//10 149//10
f 132//5 149//5 148//5
f 140//6 157//6 141//6
f 141//2 134//2 133//2
f 158//1 149//1 150//1
f 134//5 149//5 133//5
f 141//6 158//6 142//6
f 142//4 135//4 134//4
f 159//3 150//3 151//3
f 135//5 150//5 134//5
f 143//6 158//6 159//6
f 143//8 136//8 135//8
f 160//7 151//7 152//7
f 136//5 151//5 135//5
f 144//6 159//6 160//6
f 144//10 129//10 136//10
f 153//9 152//9 145//9
f 129//17 152//17 136//17
f 137//18 160//18 153//18
f 169//1 162//1 161//1
f 186//2 177//2 178//2
f 161//2 178//2 177//2
f 170//2 185//2 186//2
f 170//3 163//3 162//3
f 187//4 178//4 179//4
f 162//19 179//19 178//19
f 170//13 187//13 171//13
f 171//7 164//7 163//7
f 188//8 179//8 180//8
f 163//5 180//5 179//5
f 171//6 188//6 172//6
f 172//9 165//9 164//9
f 189//10 180//10 181//10
f 164//5 181//5 180//5
f 172//6 189//6 173//6
f 173//2 166//2 165//2
f 190//1 181//1 182//1
f 166//5 181//5 165//5
f 173//6 190//6 174//6
f 174//4 167//4 166//4
f 191//3 182//3 183//3
f 167//5 182//5 166//5
f 175//6 190//6 191//6
f 175//8 168//8 167//8
f 192//7 183//7 184//7
f 168//5 183//5 167//5
f 176//6 191//6 192//6
f 176//10 161//10 168//10
f 185//9 184//9 177//9
f 161//15 184//15 168//15
f 169//6 192//6 185//6
f 201//1 194//1 193//1
f 218//2 209//2 210//2
f 193//2 210//2 209//2
f 202//2 217//2 218//2
f 202//3 195//3 194//3
f 219//4 210//4 211//4
f 194//20 211//20 210//20
f 202//11 219//11 203//11
f 203//7 196//7 195//7
f 220//8 211//8 212//8
f 195//5 212//5 211//5
f 203//6 220//6 204//6
f 204//9 197//9 196//9
f 221//10 212//10 213//10
f 196//5 213//5 212//5
f 204//6 221//6 205//6
f 205//2 198//2 197//2
f 222//1 213//1 214//1
f 198//5 213//5 197//5
f 205//6 222//6 206//6
f 206//4 199//4 198//4
f 223//3 214//3 215//3
f 199//5 214//5 198//5
f 207//6 222//6 223//6
f 207//8 200//8 199//8
f 224//7 215//7 216//7
f 200//5 215//5 199//5
f 208//6 223//6 224//6
f 208//10 193//10 200//10
f 217//9 216//9 209//9
f 193//21 216//21 200//21
f 201//6 224//6 217//6
f 233//1 226//1 225//1
f 250//2 241//2 242//2
f 225//2 242//2 241//2
f 234//2 249//2 250//2
f 234//3 227//3 226//3
f 251//4 242//4 243//4
f 226//5 243//5 242//5
f 234//22 251//22 235//22
f 235//7 228//7 227//7
f 252//8 243//8 244//8
f 227//5 244//5 243//5
f 235//6 252//6 236//6
f 236//9 229//9 228//9
f 253//10 244//10 245//10
f 228//12 245//12 244//12
f 236//6 253//6 237//6
f 237//2 230//2 229//2
f 254//1 245//1 246//1
f 230//5 245//5 229//5
f 237//6 254//6 238//6
f 238//4 231//4 230//4
f 255//3 246//3 247//3
f 231//5 246//5 230//5
f 239//6 254//6 255//6
f 239//8 232//8 231//8
f 256//7 247//7 248//7
f 232//5 247//5 231//5
f 240//6 255//6 256//6
f 240//10 225//10 232//10
f 249//9 248//9 241//9
f 225//23 248//23 232//23
f 233//24 256//24 249//24
f 265//1 258//1 257//1
f 282//2 273//2 274//2
f 257//2 274//2 273//2
f 266//2 281//2 282//2
f 266//3 259//3 258//3
f 283//4 274//4 275//4
f 258//5 275//5 274//5
f 266//25 283//25 267//25
f 267//7 260//7 259//7
f 284//8 275//8 276//8
f 259//5 276//5 275//5
f 267//6 284//6 268//6
f 268//9 261//9 260//9
f 285//10 276//10 277//10
f 260//5 277//5 276//5
f 268//6 285//6 269//6
f 269//2 262//2 261//2
f 286//1 277//1 278//1
f 262//5 277//5 261//5
f 269//6 286//6 270//6
f 270//4 263//4 262//4
f 287//3 278//3 279//3
f 263//5 278//5 262//5
f 271//6 286//6 287//6
f 271//8 264//8 263//8
f 288//7 279//7 280//7
f 264//5 279//5 263//5
f 272//6 287//6 288//6
f 272//10 257//10 264//10
f 281//9 280//9 273//9
f 257//17 280//17 264//17
f 265//6 288//6 281//6
f 297//1 290//1 289//1
f 314//2 305//2 306//2
f 289//2 306//2 305//2
f 298//2 313//2 314//2
f 298//3 291//3 290//3
f 315//4 306//4 307//4
f 290//26 307//26 306//26
f 298//27 315//27 299//27
f 299//7 292//7 291//7
f 316//8 307//8 308//8
f 291//5 308//5 307//5
f 299//6 316//6 300//6
f 300//9 293//9 292//9
f 317//10 308//10 309//10
f 292//5 309//5 308//5
f 300//6 317//6 301//6
f 301//2 294//2 293//2
f 318//1 309//1 310//1
f 294//12 309//12 293//12
f 301//6 318//6 302//6
f 302//4 295//4 294//4
f 319//3 310//3 311//3
f 295//5 310//5 294//5
f 303//11 318//11 319//11
f 303//8 296//8 295//8
f 320//7 311//7 312//7
f 296//5 311//5 295//5
f 304//6 319//6 320//6
f 304//10 289//10 296//10
f 313//9 312//9 305//9
f 289//28 312//28 296//28
f 297//6 320//6 313//6
f 329//1 322//1 321//1
f 346//2 337//2 338//2
f 321//1 338//1 337//1
f 330//2 345//2 346//2
f 330//3 323//3 322//3
f 347//4 338//4 339//4
f 322//5 339//5 338//5
f 330//29 347//29 331//29
f 331//7 324//7 323//7
f 348//8 339//8 340//8
f 323//5 340//5 339//5
f 331//6 348//6 332//6
f 332//9 325//9 324//9
f 349//10 340//10 341//10
f 324//5 341//5 340//5
f 332//6 349//6 333//6
f 333//2 326//2 325//2
f 350//1 341//1 342//1
f 326//5 341//5 325//5
f 333//11 350//11 334//11
f 334//4 327//4 326//4
f 351//3 342//3 343//3
f 327//5 342//5 326//5
f 335//6 350//6 351//6
f 335//8 328//8 327//8
f 352//7 343//7 344//7
f 328//5 343//5 327//5
f 336//6 351//6 352//6
f 336//10 321//10 328//10
f 345//9 344//9 337//9
f 321//12 344//12 328//12
f 329//30 352//30 345//30
f 361//1 354//1 353//1
f 378//2 369//2 370//2
f 353//2 370//2 369//2
f 362//2 377//2 378//2
f 362//3 355//3 354//3
f 379//4 370//4 371//4
f 354//5 371//5 370//5
f 362//13 379//13 363//13
f 363//7 356//7 355//7
f 380//8 371//8 372//8
f 355//5 372//5 371//5
f 363//6 380//6 364//6
f 364//9 357//9 356//9
f 381//10 372//10 373//10
f 356//5 373//5 372//5
f 364//6 381//6 365//6
f 365//2 358//2 357//2
f 382//1 373//1 374//1
f 358//5 373//5 357//5
f 365//11 382//11 366//11
f 366//4 359//4 358//4
f 383//3 374//3 375//3
f 359//5 374//5 358//5
f 367//6 382//6 383//6
f 367//8 360//8 359//8
f 384//7 375//7 376//7
f 360//5 375//5 359//5
f 368//6 383//6 384//6
f 368//10 353//10 360//10
f 377//9 376//9 369//9
f 353//15 376//15 360//15
f 361//6 384//6 377//6
f 393//1 386//1 385//1
f 410//2 401//2 402//2
f 385//2 402//2 401//2
f 394//2 409//2 410//2
f 394//3 387//3 386//3
f 411//4 402//4 403//4
f 386//31 403//31 402//31
f 394//32 411//32 395//32
f 395//7 388//7 387//7
f 412//8 403//8 404//8
f 387//5 404//5 403//5
f 395//6 412//6 396//6
f 396//9 389//9 388//9
f 413//10 404//10 405//10
f 388//5 405//5 404//5
f 396//13 413//13 397//13
f 397//2 390//2 389//2
f 414//1 405//1 406//1
f 390//5 405//5 389//5
f 397//6 414//6 398//6
f 398//4 391//4 390//4
f 415//3 406//3 407//3
f 391//12 406//12 390//12
f 399//6 414//6 415//6
f 399//8 392//8 391//8
f 416//7 407//7 408//7
f 392//5 407//5 391//5
f 400//6 415//6 416//6
f 400//10 385//10 392//10
f 409//9 408//9 401//9
f 385//19 408//19 392//19
f 393//6 416//6 409//6
f 425//1 418//1 417//1
f 442//2 433//2 434//2
f 417//2 434//2 433//2
f 426//2 441//2 442//2
f 426//3 419//3 418//3
f 443//4 434//4 435//4
f 418//5 435//5 434//5
f 426//33 443//33 427//33
f 427//7 420//7 419//7
f 444//8 435//8 436//8
f 419//5 436//5 435//5
f 427//6 444//6 428//6
f 428//9 421//9 420//9
f 445//10 436//10 437//10
f 420//5 437//5 436//5
f 428//6 445//6 429//6
f 429//2 422//2 421//2
f 446//1 437//1 438//1
f 422//5 437//5 421//5
f 429//6 446//6 430//6
f 430//4 423//4 422//4
f 447//3 438//3 439//3
f 423//5 438//5 422//5
f 431//6 446//6 447//6
f 431//8 424//8 423//8
f 448//7 439//7 440//7
f 424//5 439//5 423//5
f 432//6 447//6 448//6
f 432//10 417//10 424//10
f 441//9 440//9 433//9
f 417//14 440//14 424//14
f 425//34 448//34 441//34
f 457//1 450//1 449//1
f 474//2 465//2 466//2
f 449//1 466//1 465//1
f 458//2 473//2 474//2
f 458//3 451//3 450//3
f 475//4 466//4 467//4
f 450//5 467//5 466//5
f 458//29 475//29 459//29
f 459//7 452//7 451//7
f 476//8 467//8 468//8
f 451//5 468//5 467//5
f 459//6 476//6 460//6
f 460//9 453//9 452//9
f 477//10 468//10 469//10
f 452//5 469//5 468//5
f 460//6 477//6 461//6
f 461//2 454//2 453//2
f 478//1 469//1 470//1
f 454//5 469//5 453//5
f 461//6 478//6 462//6
f 462//4 455//4 454//4
f 479//3 470//3 471//3
f 455//5 470//5 454//5
f 463//6 478//6 479//6
f 463//8 456//8 455//8
f 480//7 471//7 472//7
f 456//5 471//5 455//5
f 464//6 479//6 480//6
f 464//10 449//10 456//10
f 473//9 472//9 465//9
f 449//12 472//12 456//12
f 457//6 480//6 473//6
f 9//1 10//1 2//1
f 26//2 25//2 17//2
f 1//2 2//2 18//2
f 10//2 9//2 25//2
f 10//3 11//3 3//3
f 27//4 26//4 18//4
f 2//5 3//5 19//5
f 10//6 26//6 27//6
f 11//7 12//7 4//7
f 28//8 27//8 19//8
f 3//5 4//5 20//5
f 11//6 27//6 28//6
f 12//9 13//9 5//9
f 29//10 28//10 20//10
f 4//5 5//5 21//5
f 12//6 28//6 29//6
f 13//2 14//2 6//2
f 30//1 29//1 21//1
f 6//5 22//5 21//5
f 13//6 29//6 30//6
f 14//4 15//4 7//4
f 31//3 30//3 22//3
f 7//5 23//5 22//5
f 15//6 14//6 30//6
f 15//8 16//8 8//8
f 32//7 31//7 23//7
f 8//5 24//5 23//5
f 16//6 15//6 31//6
f 16//10 9//10 1//10
f 25//9 32//9 24//9
f 1//5 17//5 24//5
f 9//6 16//6 32//6
f 41//1 42//1 34//1
f 58//2 57//2 49//2
f 33//2 34//2 50//2
f 42//1 41//1 57//1
f 42//3 43//3 35//3
f 59//4 58//4 50//4
f 34//5 35//5 51//5
f 42//6 58//6 59//6
f 43//7 44//7 36//7
f 60//8 59//8 51//8
f 35//5 36//5 52//5
f 43//6 59//6 60//6
f 44//9 45//9 37//9
f 61//10 60//10 52//10
f 36//5 37//5 53//5
f 44//6 60//6 61//6
f 45//2 46//2 38//2
f 62//1 61//1 53//1
f 38//5 54//5 53//5
f 45//6 61//6 62//6
f 46//4 47//4 39//4
f 63//3 62//3 54//3
f 39//5 55//5 54//5
f 47//6 46//6 62//6
f 47//8 48//8 40//8
f 64//7 63//7 55//7
f 40//5 56//5 55//5
f 48//6 47//6 63//6
f 48//10 41//10 33//10
f 57//9 64//9 56//9
f 33//5 49//5 56//5
f 41//6 48//6 64//6
f 73//1 74//1 66//1
f 90//2 89//2 81//2
f 65//2 66//2 82//2
f 74//2 73//2 89//2
f 74//3 75//3 67//3
f 91//4 90//4 82//4
f 66//12 67//12 83//12
f 74//6 90//6 91//6
f 75//7 76//7 68//7
f 92//8 91//8 83//8
f 67//5 68//5 84//5
f 75//6 91//6 92//6
f 76//9 77//9 69//9
f 93//10 92//10 84//10
f 68//5 69//5 85//5
f 76//6 92//6 93//6
f 77//2 78//2 70//2
f 94//1 93//1 85//1
f 70//5 86//5 85//5
f 77//6 93//6 94//6
f 78//4 79//4 71//4
f 95//3 94//3 86//3
f 71//5 87//5 86//5
f 79//6 78//6 94//6
f 79//8 80//8 72//8
f 96//7 95//7 87//7
f 72//5 88//5 87//5
f 80//6 79//6 95//6
f 80//10 73//10 65//10
f 89//9 96//9 88//9
f 65//5 81//5 88//5
f 73//11 80//11 96//11
f 105//1 106//1 98//1
f 122//2 121//2 113//2
f 97//2 98//2 114//2
f 106//2 105//2 121//2
f 106//3 107//3 99//3
f 123//4 122//4 114//4
f 98//14 99//14 115//14
f 106//6 122//6 123//6
f 107//7 108//7 100//7
f 124//8 123//8 115//8
f 99//5 100//5 116//5
f 107//6 123//6 124//6
f 108//9 109//9 101//9
f 125//10 124//10 116//10
f 100//5 101//5 117//5
f 108//6 124//6 125//6
f 109//2 110//2 102//2
f 126//1 125//1 117//1
f 102//5 118//5 117//5
f 109//6 125//6 126//6
f 110//4 111//4 103//4
f 127//3 126//3 118//3
f 103//5 119//5 118//5
f 111//6 110//6 126//6
f 111//8 112//8 104//8
f 128//7 127//7 119//7
f 104//5 120//5 119//5
f 112//6 111//6 127//6
f 112//10 105//10 97//10
f 121//9 128//9 120//9
f 97//5 113//5 120//5
f 105//13 112//13 128//13
f 137//1 138//1 130//1
f 154//2 153//2 145//2
f 129//1 130//1 146//1
f 138//2 137//2 153//2
f 138//3 139//3 131//3
f 155//4 154//4 146//4
f 130//17 131//17 147//17
f 138//18 154//18 155//18
f 139//7 140//7 132//7
f 156//8 155//8 147//8
f 131//5 132//5 148//5
f 139//6 155//6 156//6
f 140//9 141//9 133//9
f 157//10 156//10 148//10
f 132//5 133//5 149//5
f 140//6 156//6 157//6
f 141//2 142//2 134//2
f 158//1 157//1 149//1
f 134//5 150//5 149//5
f 141//6 157//6 158//6
f 142//4 143//4 135//4
f 159//3 158//3 150//3
f 135//5 151//5 150//5
f 143//6 142//6 158//6
f 143//8 144//8 136//8
f 160//7 159//7 151//7
f 136//5 152//5 151//5
f 144//6 143//6 159//6
f 144//10 137//10 129//10
f 153//9 160//9 152//9
f 129//15 145//15 152//15
f 137//16 144//16 160//16
f 169//1 170//1 162//1
f 186//2 185//2 177//2
f 161//1 162//1 178//1
f 170//1 169//1 185//1
f 170//3 171//3 163//3
f 187//4 186//4 178//4
f 162//15 163//15 179//15
f 170//6 186//6 187//6
f 171//7 172//7 164//7
f 188//8 187//8 179//8
f 163//5 164//5 180//5
f 171//6 187//6 188//6
f 172//9 173//9 165//9
f 189//10 188//10 180//10
f 164//5 165//5 181//5
f 172//6 188//6 189//6
f 173//2 174//2 166//2
f 190//1 189//1 181//1
f 166//5 182//5 181//5
f 173//6 189//6 190//6
f 174//4 175//4 167//4
f 191//3 190//3 182//3
f 167//5 183//5 182//5
f 175//6 174//6 190//6
f 175//8 176//8 168//8
f 192//7 191//7 183//7
f 168//5 184//5 183//5
f 176//6 175//6 191//6
f 176//10 169//10 161//10
f 185//9 192//9 184//9
f 161//19 177//19 184//19
f 169//13 176//13 192//13
f 201//1 202//1 194//1
f 218//2 217//2 209//2
f 193//1 194//1 210//1
f 202//1 201//1 217//1
f 202//3 203//3 195//3
f 219//4 218//4 210//4
f 194//21 195//21 211//21
f 202//6 218//6 219//6
f 203//7 204//7 196//7
f 220//8 219//8 211//8
f 195//5 196//5 212//5
f 203//6 219//6 220//6
f 204//9 205//9 197//9
f 221//10 220//10 212//10
f 196//5 197//5 213//5
f 204//6 220//6 221//6
f 205//2 206//2 198//2
f 222//1 221//1 213//1
f 198//5 214//5 213//5
f 205//6 221//6 222//6
f 206//4 207//4 199//4
f 223//3 222//3 214//3
f 199//5 215//5 214//5
f 207//6 206//6 222//6
f 207//8 208//8 200//8
f 224//7 223//7 215//7
f 200//5 216//5 215//5
f 208//6 207//6 223//6
f 208//10 201//10 193//10
f 217//9 224//9 216//9
f 193//20 209//20 216//20
f 201//11 208//11 224//11
f 233//1 234//1 226//1
f 250//2 249//2 241//2
f 225//1 226//1 242//1
f 234//1 233//1 249//1
f 234//3 235//3 227//3
f 251//4 250//4 242//4
f 226//23 227//23 243//23
f 234//24 250//24 251//24
f 235//7 236//7 228//7
f 252//8 251//8 243//8
f 227//5 228//5 244//5
f 235//6 251//6 252//6
f 236//9 237//9 229//9
f 253//10 252//10 244//10
f 228//5 229//5 245//5
f 236//6 252//6 253//6
f 237//2 238//2 230//2
f 254//1 253//1 245//1
f 230//5 246//5 245//5
f 237//6 253//6 254//6
f 238//4 239//4 231//4
f 255//3 254//3 246//3
f 231//12 247//12 246//12
f 239//6 238//6 254//6
f 239//8 240//8 232//8
f 256//7 255//7 247//7
f 232//5 248//5 247//5
f 240//6 239//6 255//6
f 240//10 233//10 225//10
f 249//9 256//9 248//9
f 225//5 241//5 248//5
f 233//22 240//22 256//22
f 265//1 266//1 258//1
f 282//2 281//2 273//2
f 257//1 258//1 274//1
f 266//1 265//1 281//1
f 266//3 267//3 259//3
f 283//4 282//4 274//4
f 258//17 259//17 275//17
f 266//6 282//6 283//6
f 267//7 268//7 260//7
f 284//8 283//8 275//8
f 259//5 260//5 276//5
f 267//6 283//6 284//6
f 268//9 269//9 261//9
f 285//10 284//10 276//10
f 260//5 261//5 277//5
f 268//6 284//6 285//6
f 269//2 270//2 262//2
f 286//1 285//1 277//1
f 262//5 278//5 277//5
f 269//6 285//6 286//6
f 270//4 271//4 263//4
f 287//3 286//3 278//3
f 263//5 279//5 278//5
f 271//6 270//6 286//6
f 271//8 272//8 264//8
f 288//7 287//7 279//7
f 264//5 280//5 279//5
f 272//6 271//6 287//6
f 272//10 265//10 257//10
f 281//9 288//9 280//9
f 257//5 273//5 280//5
f 265//25 272//25 288//25
f 297//1 298//1 290//1
f 314//2 313//2 305//2
f 289//1 290//1 306//1
f 298//2 297//2 313//2
f 298//3 299//3 291//3
f 315//4 314//4 306//4
f 290//28 291//28 307//28
f 298//6 314//6 315//6
f 299//7 300//7 292//7
f 316//8 315//8 307//8
f 291//5 292//5 308//5
f 299//6 315//6 316//6
f 300//9 301//9 293//9
f 317//10 316//10 308//10
f 292//5 293//5 309//5
f 300//11 316//11 317//11
f 301//2 302//2 294//2
f 318//1 317//1 309//1
f 294//5 310//5 309//5
f 301//6 317//6 318//6
f 302//4 303//4 295//4
f 319//3 318//3 310//3
f 295//5 311//5 310//5
f 303//6 302//6 318//6
f 303//8 304//8 296//8
f 320//7 319//7 311//7
f 296//5 312//5 311//5
f 304//6 303//6 319//6
f 304//10 297//10 289//10
f 313//9 320//9 312//9
f 289//26 305//26 312//26
f 297//27 304//27 320//27
f 329//1 330//1 322//1
f 346//2 345//2 337//2
f 321//2 322//2 338//2
f 330//1 329//1 345//1
f 330//3 331//3 323//3
f 347//4 346//4 338//4
f 322//12 323//12 339//12
f 330//30 346//30 347//30
f 331//7 332//7 324//7
f 348//8 347//8 339//8
f 323//5 324//5 340//5
f 331//6 347//6 348//6
f 332//9 333//9 325//9
f 349//10 348//10 340//10
f 324//5 325//5 341//5
f 332//6 348//6 349//6
f 333//2 334//2 326//2
f 350//1 349//1 341//1
f 326//12 342//12 341//12
f 333//6 349//6 350//6
f 334//4 335//4 327//4
f 351//3 350//3 342//3
f 327//5 343//5 342//5
f 335//6 334//6 350//6
f 335//8 336//8 328//8
f 352//7 351//7 343//7
f 328//5 344//5 343//5
f 336//6 335//6 351//6
f 336//10 329//10 321//10
f 345//9 352//9 344//9
f 321//5 337//5 344//5
f 329//29 336//29 352//29
f 361//1 362//1 354//1
f 378//2 377//2 369//2
f 353//2 354//2 370//2
f 362//1 361//1 377//1
f 362//3 363//3 355//3
f 379//4 378//4 370//4
f 354//15 355//15 371//15
f 362//6 378//6 379//6
f 363//7 364//7 356//7
f 380//8 379//8 371//8
f 355//5 356//5 372//5
f 363//6 379//6 380//6
f 364//9 365//9 357//9
f 381//10 380//10 372//10
f 356//5 357//5 373//5
f 364//6 380//6 381//6
f 365//2 366//2 358//2
f 382//1 381//1 373//1
f 358//5 374//5 373//5
f 365//6 381//6 382//6
f 366//4 367//4 359//4
f 383//3 382//3 374//3
f 359//5 375//5 374//5
f 367//6 366//6 382//6
f 367//8 368//8 360//8
f 384//7 383//7 375//7
f 360//5 376//5 375//5
f 368//6 367//6 383//6
f 368//10 361//10 353//10
f 377//9 384//9 376//9
f 353//5 369//5 376//5
f 361//13 368//13 384//13
f 393//1 394//1 386//1
f 410//2 409//2 401//2
f 385//1 386//1 402//1
f 394//1 393//1 409//1
f 394//3 395//3 387//3
f 411//4 410//4 402//4
f 386//19 387//19 403//19
f 394//6 410//6 411//6
f 395//7 396//7 388//7
f 412//8 411//8 403//8
f 387//5 388//5 404//5
f 395//6 411//6 412//6
f 396//9 397//9 389//9
f 413//10 412//10 404//10
f 388//12 389//12 405//12
f 396//6 412//6 413//6
f 397//2 398//2 390//2
f 414//1 413//1 405//1
f 390//5 406//5 405//5
f 397//6 413//6 414//6
f 398//4 399//4 391//4
f 415//3 414//3 406//3
f 391//5 407//5 406//5
f 399//13 398//13 414//13
f 399//8 400//8 392//8
f 416//7 415//7 407//7
f 392//5 408//5 407//5
f 400//6 399//6 415//6
f 400//10 393//10 385//10
f 409//9 416//9 408//9
f 385//31 401//31 408//31
f 393//32 400//32 416//32
f 425//1 426//1 418//1
f 442//2 441//2 433//2
f 417//1 418//1 434//1
f 426//1 425//1 441//1
f 426//3 427//3 419//3
f 443//4 442//4 434//4
f 418//14 419//14 435//14
f 426//34 442//34 443//34
f 427//7 428//7 420//7
f 444//8 443//8 435//8
f 419//5 420//5 436//5
f 427//6 443//6 444//6
f 428//9 429//9 421//9
f 445//10 444//10 436//10
f 420//5 421//5 437//5
f 428//6 444//6 445//6
f 429//2 430//2 422//2
f 446//1 445//1 437//1
f 422//14 438//14 437//14
f 429//6 445//6 446//6
f 430//4 431//4 423//4
f 447//3 446//3 438//3
f 423//5 439//5 438//5
f 431//6 430//6 446//6
f 431//8 432//8 424//8
f 448//7 447//7 439//7
f 424//5 440//5 439//5
f 432//6 431//6 447//6
f 432//10 425//10 417//10
f 441//9 448//9 440//9
f 417//5 433//5 440//5
f 425//33 432//33 448//33
f 457//1 458//1 450//1
f 474//2 473//2 465//2
f 449//2 450//2 466//2
f 458//2 457//2 473//2
f 458//3 459//3 451//3
f 475//4 474//4 466//4
f 450//12 451//12 467//12
f 458//6 474//6 475//6
f 459//7 460//7 452//7
f 476//8 475//8 467//8
f 451//5 452//5 468//5
f 459//6 475//6 476//6
f 460//9 461//9 453//9
f 477//10 476//10 468//10
f 452//5 453//5 469//5
f 460//6 476//6 477//6
f 461//2 462//2 454//2
f 478//1 477//1 469//1
f 454//12 470//12 469//12
f 461//6 477//6 478//6
f 462//4 463//4 455//4
f 479//3 478//3 470//3
f 455//5 471//5 470//5
f 463//6 462//6 478//6
f 463//8 464//8 456//8
f 480//7 479//7 471//7
f 456//5 472//5 471//5
f 464//6 463//6 479//6
f 464//10 457//10 449//10
f 473//9 480//9 472//9
f 449//5 465//5 472//5
f 457//29 464//29 480//29
