# Crytek Sponza via Khronos glTF-Sample-Assets; floor at y=0
v 0.418048 3.065388 4.858792
v 0.361586 3.096148 4.881499
v 0.361585 3.729502 4.881499
v 0.418047 3.797119 4.858792
v -0.471107 3.065388 4.913566
v -0.471107 3.065388 4.858792
v 0.418048 3.065388 4.858792
v 0.418048 3.065388 4.913566
v -0.471107 3.797119 4.913566
v -0.471107 3.797119 4.858792
v -0.471107 3.065388 4.858792
v -0.471107 3.065388 4.913566
v 0.418047 3.797119 4.913566
v 0.418047 3.797119 4.858792
v -0.471107 3.797119 4.858792
v -0.471107 3.797119 4.913566
v 0.418048 3.065388 4.913566
v 0.418048 3.065388 4.858792
v 0.418047 3.797119 4.858792
v 0.418047 3.797119 4.913566
v 0.361585 3.729502 4.881499
v 0.361586 3.096148 4.881499
v -0.411029 3.096147 4.881499
v -0.411029 3.729502 4.881499
v 0.418047 3.797119 4.858792
v 0.361585 3.729502 4.881499
v -0.411029 3.729502 4.881499
v -0.471107 3.797119 4.858792
v -0.471107 3.065388 4.858792
v -0.411029 3.096147 4.881499
v 0.361586 3.096148 4.881499
v 0.418048 3.065388 4.858792
v -0.471107 3.065388 4.858792
v -0.471107 3.797119 4.858792
v -0.411029 3.729502 4.881499
v -0.411029 3.096147 4.881499
vt 0.068400 0.176300
vt 0.092900 0.208500
vt 0.092900 0.871400
vt 0.068400 0.903700
vt 0.937000 0.119000
vt 0.937000 0.176300
vt 0.068400 0.176300
vt 0.068400 0.119000
vt 0.994300 0.903700
vt 0.937000 0.903700
vt 0.937000 0.176300
vt 0.994300 0.176300
vt 0.068400 0.961000
vt 0.068400 0.903700
vt 0.937000 0.903700
vt 0.937000 0.961000
vt 0.011100 0.176300
vt 0.068400 0.176300
vt 0.068400 0.903700
vt 0.011100 0.903700
vt 0.092900 0.871400
vt 0.092900 0.208500
vt 0.901500 0.208500
vt 0.901500 0.871400
vt 0.068400 0.903700
vt 0.092900 0.871400
vt 0.901500 0.871400
vt 0.937000 0.903700
vt 0.937000 0.176300
vt 0.901500 0.208500
vt 0.092900 0.208500
vt 0.068400 0.176300
vt 0.937000 0.176300
vt 0.937000 0.903700
vt 0.901500 0.871400
vt 0.901500 0.208500
vn -0.37310 0.00000 -0.92779
vn -0.37310 0.00000 -0.92779
vn -0.37310 0.00000 -0.92779
vn -0.37310 0.00000 -0.92779
vn 0.00000 -1.00000 0.00000
vn 0.00000 -1.00000 0.00000
vn 0.00000 -1.00000 0.00000
vn 0.00000 -1.00000 0.00000
vn -1.00000 0.00000 0.00000
vn -1.00000 0.00000 0.00000
vn -1.00000 0.00000 0.00000
vn -1.00000 0.00000 0.00000
vn 0.00000 1.00000 0.00000
vn 0.00000 1.00000 0.00000
vn 0.00000 1.00000 0.00000
vn 0.00000 1.00000 0.00000
vn 1.00000 0.00000 0.00000
vn 1.00000 0.00000 0.00000
vn 1.00000 0.00000 0.00000
vn 1.00000 0.00000 0.00000
vn 0.00000 0.00000 -1.00000
vn 0.00000 0.00000 -1.00000
vn 0.00000 0.00000 -1.00000
vn 0.00000 0.00000 -1.00000
vn 0.00000 -0.31830 -0.94799
vn 0.00000 -0.31830 -0.94799
vn 0.00000 -0.31830 -0.94799
vn 0.00000 -0.31830 -0.94799
vn 0.00000 0.59392 -0.80453
vn 0.00000 0.59392 -0.80453
vn 0.00000 0.59392 -0.80453
vn 0.00000 0.59392 -0.80453
vn 0.35351 0.00000 -0.93543
vn 0.35351 0.00000 -0.93543
vn 0.35351 0.00000 -0.93543
vn 0.35351 0.00000 -0.93543
f 1/1/1 2/2/2 3/3/3
f 1/1/1 3/3/3 4/4/4
f 5/5/5 6/6/6 7/7/7
f 5/5/5 7/7/7 8/8/8
f 9/9/9 10/10/10 11/11/11
f 9/9/9 11/11/11 12/12/12
f 13/13/13 14/14/14 15/15/15
f 13/13/13 15/15/15 16/16/16
f 17/17/17 18/18/18 19/19/19
f 17/17/17 19/19/19 20/20/20
f 21/21/21 22/22/22 23/23/23
f 21/21/21 23/23/23 24/24/24
f 25/25/25 26/26/26 27/27/27
f 25/25/25 27/27/27 28/28/28
f 29/29/29 30/30/30 31/31/31
f 29/29/29 31/31/31 32/32/32
f 33/33/33 34/34/34 35/35/35
f 33/33/33 35/35/35 36/36/36
