# Crytek Sponza via Khronos glTF-Sample-Assets; floor at y=0
v 10.901919 4.335783 -4.853924
v 7.685522 4.335783 -4.853924
v 7.685522 4.335783 -2.104581
v 10.901919 4.335783 -2.104581
v 10.901919 4.335783 2.153664
v -7.757247 4.335783 -2.104581
v -7.757247 4.335783 -4.853924
v 7.685522 4.335783 2.153664
v -10.973644 4.335783 -4.853924
v -10.973644 4.335783 -2.104581
v 10.901919 4.335783 4.903006
v 7.685522 4.335783 4.903006
v -7.757247 4.335783 4.903006
v -7.757247 4.335783 2.153664
v -10.973644 4.335783 2.153664
v -10.973644 4.335783 4.903006
v 1.521069 0.991490 4.901760
v 10.901676 0.991490 4.901762
v 10.901676 0.991490 -4.837369
v -1.550702 0.991490 4.901760
v -10.944007 0.991490 4.901759
v -0.022585 0.991490 -4.841167
v -10.944007 0.991490 -4.844967
vt 6.718900 3.185200
vt 5.731000 3.185200
vt 5.731000 2.327400
vt 6.718900 2.327400
vt 6.718900 1.017300
vt 0.987900 2.327400
vt 0.987900 3.185200
vt 5.731000 1.017300
vt 0.000000 3.185200
vt 0.000000 2.327400
vt 6.718900 0.140900
vt 5.731000 0.140900
vt 0.987900 0.140900
vt 0.987900 1.017300
vt 0.000000 1.017300
vt 0.000000 0.140900
vt 2.621700 5.952500
vt -1.890500 5.952500
vt -1.890500 1.267900
vt 4.099200 5.952500
vt 8.617500 5.952500
vt 3.364200 1.266100
vt 8.617500 1.264200
vn 0.00000 1.00000 0.00000
vn 0.00000 1.00000 0.00000
vn 0.00000 1.00000 0.00000
vn 0.00000 1.00000 0.00000
vn 0.00000 1.00000 0.00000
vn 0.00000 1.00000 0.00000
vn 0.00000 1.00000 0.00000
vn 0.00000 1.00000 0.00000
vn 0.00000 1.00000 0.00000
vn 0.00000 1.00000 0.00000
vn 0.00000 1.00000 0.00000
vn 0.00000 1.00000 0.00000
vn 0.00000 1.00000 0.00000
vn 0.00000 1.00000 0.00000
vn 0.00000 1.00000 0.00000
vn 0.00000 1.00000 0.00000
vn 0.00000 1.00000 0.00000
vn 0.00000 1.00000 0.00000
vn 0.00000 1.00000 0.00000
vn 0.00000 1.00000 0.00000
vn 0.00000 1.00000 0.00000
vn 0.00000 1.00000 0.00000
vn 0.00000 1.00000 0.00000
f 1/1/1 2/2/2 3/3/3
f 1/1/1 3/3/3 4/4/4
f 3/3/3 5/5/5 4/4/4
f 2/2/2 6/6/6 3/3/3
f 2/2/2 7/7/7 6/6/6
f 3/3/3 8/8/8 5/5/5
f 6/6/6 7/7/7 9/9/9
f 6/6/6 9/9/9 10/10/10
f 8/8/8 11/11/11 5/5/5
f 8/8/8 12/12/12 11/11/11
f 13/13/13 12/12/12 8/8/8
f 14/14/14 6/6/6 10/10/10
f 13/13/13 8/8/8 14/14/14
f 14/14/14 10/10/10 15/15/15
f 16/16/16 13/13/13 14/14/14
f 16/16/16 14/14/14 15/15/15
f 17/17/17 18/18/18 19/19/19
f 17/17/17 19/19/19 20/20/20
f 21/21/21 20/20/20 19/19/19
f 21/21/21 19/19/19 22/22/22
f 23/23/23 21/21/21 22/22/22
